<svg width="29" height="27" viewBox="0 0 29 27" fill="none" xmlns="http://www.w3.org/2000/svg">
<path fill-rule="evenodd" clip-rule="evenodd" d="M27.7082 3.29217C27.8013 3.38506 27.8752 3.49541 27.9256 3.6169C27.976 3.73839 28.002 3.86863 28.002 4.00017C28.002 4.1317 27.976 4.26195 27.9256 4.38344C27.8752 4.50493 27.8013 4.61528 27.7082 4.70817L13.7082 18.7082C13.6153 18.8013 13.505 18.8752 13.3835 18.9256C13.262 18.976 13.1317 19.002 13.0002 19.002C12.8687 19.002 12.7384 18.976 12.6169 18.9256C12.4954 18.8752 12.3851 18.8013 12.2922 18.7082L6.2922 12.7082C6.19922 12.6152 6.12547 12.5048 6.07515 12.3833C6.02483 12.2619 5.99893 12.1317 5.99893 12.0002C5.99893 11.8687 6.02483 11.7385 6.07515 11.617C6.12547 11.4955 6.19922 11.3851 6.2922 11.2922C6.38517 11.1992 6.49555 11.1254 6.61703 11.0751C6.73851 11.0248 6.86871 10.9989 7.0002 10.9989C7.13168 10.9989 7.26188 11.0248 7.38336 11.0751C7.50484 11.1254 7.61522 11.1992 7.7082 11.2922L13.0002 16.5862L26.2922 3.29217C26.3851 3.19904 26.4954 3.12516 26.6169 3.07474C26.7384 3.02433 26.8687 2.99838 27.0002 2.99838C27.1317 2.99838 27.262 3.02433 27.3835 3.07474C27.505 3.12516 27.6153 3.19904 27.7082 3.29217Z" fill="#2DC071"/>
<path fill-rule="evenodd" clip-rule="evenodd" d="M13 3.00012C10.8244 3.00012 8.69769 3.64526 6.88875 4.85395C5.07981 6.06265 3.66991 7.78061 2.83734 9.7906C2.00478 11.8006 1.78694 14.0123 2.21138 16.1461C2.63582 18.2799 3.68347 20.2399 5.22184 21.7783C6.76022 23.3167 8.72023 24.3643 10.854 24.7888C12.9878 25.2132 15.1996 24.9954 17.2095 24.1628C19.2195 23.3302 20.9375 21.9203 22.1462 20.1114C23.3549 18.3025 24 16.1757 24 14.0001C24 13.7349 24.1054 13.4805 24.2929 13.293C24.4805 13.1055 24.7348 13.0001 25 13.0001C25.2652 13.0001 25.5196 13.1055 25.7071 13.293C25.8947 13.4805 26 13.7349 26 14.0001C25.9997 16.8618 25.0551 19.6434 23.3127 21.9135C21.5704 24.1836 19.1277 25.8154 16.3635 26.5558C13.5992 27.2962 10.6679 27.1038 8.02417 26.0085C5.38042 24.9132 3.17195 22.9761 1.74127 20.4977C0.310593 18.0194 -0.262343 15.1382 0.111317 12.301C0.484977 9.46381 1.78435 6.82921 3.80793 4.80577C5.8315 2.78232 8.46619 1.48312 11.3034 1.10964C14.1406 0.73616 17.0217 1.30928 19.5 2.74012C19.6195 2.80263 19.7252 2.88868 19.8105 2.99307C19.8959 3.09747 19.9593 3.21805 19.9969 3.34758C20.0345 3.47711 20.0455 3.6129 20.0292 3.74679C20.0129 3.88067 19.9698 4.00988 19.9023 4.12665C19.8348 4.24341 19.7444 4.34532 19.6365 4.42623C19.5286 4.50715 19.4054 4.5654 19.2744 4.59749C19.1434 4.62958 19.0073 4.63483 18.8742 4.61294C18.7411 4.59106 18.6138 4.54247 18.5 4.47012C16.8285 3.5035 14.9309 2.99634 13 3.00012Z" fill="#2DC071"/>
</svg>
